<svg id="geekplanet" xmlns="http://www.w3.org/2000/svg" viewBox="0 0 1731.4 1499.8"><defs><style>.cls-1{fill:none;}.cls-2{fill:#27aae1;}.cls-3,.cls-4{fill:#005b8e;}.cls-4{opacity:0.11;isolation:isolate;}</style></defs><title>geekplanet_name</title><g id="text-planet"><path class="cls-1" d="M848,1302.3c-.9,4-2,8.6-2,12.2v35.2a54.3,54.3,0,0,0,1.3,13,55.6,55.6,0,0,0,54.1,41.7c36.7,0,59.5-29.1,59.5-76,0-34.4-18.2-71.5-58-71.5-25.2,0-47.6,17.9-54.5,43.7Z" transform="translate(0 0)"/><path class="cls-1" d="M1578.3,1309.2c-.5-10.5-3.3-28-15.1-40-8.1-8.2-19.2-12.4-33.1-12.4-32.9,0-49.3,27-54.2,52.4Z" transform="translate(0 0)"/><path class="cls-1" d="M1141.4,1404.3c27.4,0,42.9-16.7,48.2-32.4a25.6,25.6,0,0,0,1.6-9.2v-33.4h-2.9c-32.4,0-55.7,6-67.6,17.6-6.7,6.5-10,14.8-10,25.2C1110.7,1395.9,1126.6,1404.3,1141.4,1404.3Z" transform="translate(0 0)"/><path class="cls-2" d="M906.7,1231.4c-26,0-47.3,9.7-62.3,28.1l-.8-24H815.7l.4,5.6c1,16,1.5,33,1.5,56.9v201.8H846v-93.5c13.7,15.1,33.6,23.5,56.5,23.5,43.2,0,86.9-31.6,86.9-102.2C989.4,1270.9,955.4,1231.4,906.7,1231.4Zm-3.8,25.4c39.9,0,58,37.1,58,71.5,0,46.9-22.8,76-59.5,76-25.6,0-47.3-16.8-54.1-41.7a53.7,53.7,0,0,1-1.3-13v-35.2c0-3.6,1.1-8.2,2-12.2l.4-1.8C855.3,1274.8,877.7,1256.8,902.9,1256.8Z" transform="translate(0 0)"/><rect class="cls-2" x="1021.3" y="1149.4" width="28.5" height="276.3"/><path class="cls-2" d="M1219.7,1377.8v-70.4c0-49.7-23.3-76-67.4-76-19.5,0-40.3,6.1-55.7,16.2l-3.7,2.4,9.9,23.1,5.3-3.8c11.3-8.1,26.3-12.5,42.3-12.5,12.7-.2,22.3,3.2,29,9.8s11.7,20,11.8,37.4c-43,.3-74,9.5-92.2,27.5-11.6,11.5-17.5,26.2-17.5,43.6,0,26.3,18.2,54.7,58,54.7a74.8,74.8,0,0,0,54.4-22.8l1.9,18.6h27.4l-1-6.1C1220,1405.7,1219.7,1390.6,1219.7,1377.8Zm-31.3-48.5h2.9v33.4a26,26,0,0,1-1.6,9.2c-5.3,15.7-20.8,32.4-48.2,32.4-14.8,0-30.7-8.5-30.7-32.2,0-10.4,3.3-18.7,10-25.2C1132.6,1335.4,1155.9,1329.3,1188.4,1329.3Z" transform="translate(0 0)"/><path class="cls-2" d="M1348.1,1231.4c-23,0-44.3,9.9-57.8,26.2l-.8-22.1h-27.6l.4,5.7c1.1,13.5,1.5,25.4,1.5,42.6v141.9h28.5V1309.3a64.3,64.3,0,0,1,2-14.6c6.8-22.1,26.9-37.5,48.9-37.5,38.8,0,44.6,35.7,44.6,56.9v111.6h28.5V1312.6C1416.3,1235.3,1359.5,1231.4,1348.1,1231.4Z" transform="translate(0 0)"/><path class="cls-2" d="M1532.3,1231.4c-50.7,0-86.1,42.2-86.1,102.6,0,57.1,35.8,95.5,89.1,95.5,33.4,0,52.4-8.6,59.1-12.3l3.8-2.1-7.7-23.7-5.4,2.6c-10.3,5-23.3,9.6-47.5,9.6-38.7,0-61.5-25.3-63.2-69.6h131.4l.9-4.1c.9-3.9.9-7,.9-12C1607.6,1285.7,1591.7,1231.4,1532.3,1231.4Zm-2.2,25.4c13.8,0,25,4.2,33.1,12.4,11.9,12.1,14.6,29.5,15.1,40H1475.9C1480.7,1283.9,1497.2,1256.8,1530.1,1256.8Z" transform="translate(0 0)"/><path class="cls-2" d="M1674.6,1193.5l-28.5,10.7v31.3h-30.3v25.1h30.3v108.2c0,21.6,4.1,36.8,12.4,46.4s19.6,14.6,34.7,14.6c10.6,0,19.7-1.7,27.2-4.9l3.7-1.6-3.9-23.6-5.8,1.9c-3.2,1.1-9.1,2.4-18.9,2.4s-21-3.6-21-31.8V1260.6h51.3v-25.1h-51.3v-42Z" transform="translate(0 0)"/></g><g id="text-geek"><path class="cls-1" d="M297.7,1265.4c-28.5,0-40.4,25.8-42.3,44.6h80.1C335.9,1293.1,328.4,1265.4,297.7,1265.4Z" transform="translate(0 0)"/><path class="cls-1" d="M487.5,1265.4c-28.5,0-40.4,25.8-42.3,44.6h80.1C525.7,1293.1,518.2,1265.4,487.5,1265.4Z" transform="translate(0 0)"/><path class="cls-1" d="M91.7,1269.2c-25.8,0-44.9,22.5-44.9,59.5,0,31.1,15.7,56.2,44.6,56.2,17.2,0,32.2-11.2,37.4-28.1,1.5-4.5,1.9-10.9,1.9-16.1v-29.6a44.4,44.4,0,0,0-1.5-12.4C124.3,1281.9,111.2,1269.2,91.7,1269.2Z" transform="translate(0 0)"/><path class="cls-3" d="M136.3,1262.4h-.7c-8.6-15-24.7-28.5-52.8-28.5C39,1233.9.1,1270.2.1,1330.1c0,51.7,32.2,89.1,77.5,89.1,24.3,0,42.7-10.9,53.2-27h.7v15.7c0,39.3-22.5,55-52.4,55-22.1,0-41.6-7.1-53.2-13.9l-10.1,34.8c15.7,9.4,40.4,14.6,63.7,14.6,25.1,0,51.7-5.2,70.4-22.1s27-44.6,27-82.7V1290.3c0-25.1.8-40.1,1.5-52.4H138.3Zm-5.6,78.3c0,5.2-.4,11.6-1.9,16.1-5.2,16.8-20.2,28.1-37.4,28.1-28.8,0-44.6-25.1-44.6-56.2,0-37.1,19.1-59.5,44.9-59.5,19.5,0,32.6,12.7,37.4,29.6a43.9,43.9,0,0,1,1.5,12.4v29.5Z" transform="translate(0 0)"/><path class="cls-3" d="M300.3,1234c-58.4,0-89.1,47.6-89.1,98.1,0,55.8,34.8,92.1,94,92.1,26.2,0,47.9-4.9,63.6-11.6l-6.7-31.5c-14.2,4.9-29.2,8.2-50.5,8.2-29.6,0-55-14.2-56.2-47.2H377.5a118.9,118.9,0,0,0,1.5-19.5C378.9,1282.7,359.4,1234,300.3,1234Zm-44.9,76c1.9-18.7,13.9-44.6,42.3-44.6,30.7,0,38.2,27.7,37.8,44.6Z" transform="translate(0 0)"/><path class="cls-3" d="M490.1,1234c-58.4,0-89.1,47.6-89.1,98.1,0,55.8,34.8,92.1,94,92.1,26.2,0,47.9-4.9,63.6-11.6l-6.7-31.5c-14.2,4.9-29.2,8.2-50.5,8.2-29.6,0-55-14.2-56.2-47.2H567.3a118.9,118.9,0,0,0,1.5-19.5C568.7,1282.7,549.3,1234,490.1,1234Zm-44.9,76c1.9-18.7,13.9-44.6,42.3-44.6,30.7,0,38.2,27.7,37.8,44.6Z" transform="translate(0 0)"/><path class="cls-3" d="M763.5,1238.1H708l-44.6,58.8c-4.5,6.4-9.7,14.2-14.2,21.3h-.7V1154.6H602.4v265.8h46.1v-62.2l15.3-18.3,52.4,80.5h56.5l-77.1-107.8Z" transform="translate(0 0)"/></g><g id="logo"><path id="shadow" class="cls-4" d="M453.1,979.7c0,18.8,182.7,34,408,34s408-15.2,408-34c0-13.8-99.3-25.7-241.6-31a492.1,492.1,0,0,1-215,24.3,486.3,486.3,0,0,1-116.2-24.5C553,953.8,453.1,965.8,453.1,979.7Z" transform="translate(0 0)"/><g id="inner"><circle class="cls-3" cx="842.1" cy="538.1" r="23.1"/><circle class="cls-3" cx="892.1" cy="441" r="55.7"/><path id="gear" class="cls-3" d="M1023.7,487.2a11.5,11.5,0,0,1,8.9-9.8c5.1-1.3,10.3-2.1,15.4-3.2,7.2-1.6,11.4-7,10.1-14.4-1.1-5.8-2.4-11.7-3.7-17.5s-2.4-12.6-9.6-14.4c-5.4-1.4-12.8,1.5-18,2.6-2.6.5-5.2,1.3-7.9.9-6-1-8-5.8-10.4-10.7s-7.1-10.5-6.5-16.4c.4-3.6,2.5-6,5-8.3s8.8-6.8,12.2-10.9c5.2-6.2,1.8-12.7-2.8-17.7l-12.5-13.6c-4.6-5-11.5-8.1-17.4-2.8l-11.7,10.3c-2.6,2.3-5.3,4-8.9,4-6-.1-11.2-5.4-16.1-8.3s-8.5-5.2-8.9-10.9c-.2-2.8.9-5.4,1.8-7.9,1.8-5.2,5.6-12.3,4.3-17.9s-7.7-8.2-13.3-10l-17.4-5.5c-15.1-4.6-16.7,12.6-20.7,22.5a11.7,11.7,0,0,1-11.2,7.7,180.1,180.1,0,0,1-18.3-.9c-8.6-1-9.9-8.6-11.4-15.5s-1.7-13.9-8.2-17-11.7.1-16.8,1.2-10.4,1.9-15.4,3.2c-8.3,2.2-9.7,9.4-8.1,16.6,1.2,5.5,4.2,13.2,2.1,18.8s-12.5,10-12.5,10-10.3,6.1-16.1,4.8c-11.9-2.6-18.2-28.4-33-16.5-3.9,3.2-7.6,6.7-11.4,10s-9.9,7.2-11.2,12.5c-3.7,14.6,23.3,20.3,14.7,35.5-1.5,2.7-8.4,13.2-10.4,15.4s-7.6,4.2-11.9,3-10.3-3.3-15.5-4.9c-15.1-4.5-17.8,14.6-21.3,24.8-1.9,5.7-4.2,11.6.5,16.7s11.7,5.3,16.8,6.9c2.3.7,4.7,1.3,6.7,2.6,4.8,3.4,5,8.3,4.5,13.6-.9,9.3,1.4,20.7-10.2,23.5-5.3,1.3-10.8,2-16.1,3.3-7.5,1.9-10,8.5-8.5,15.5l3.9,18.7c1.4,6.9,5.3,13.1,13.5,12,5.3-.7,10.5-2.2,15.7-3.2,3.3-.7,6.5-.9,9.6.9,5.1,2.9,6.8,9.9,9.5,14.8s5.3,9.4,2.5,14.8c-1.3,2.4-3.5,4.1-5.5,5.9-4,3.5-10.7,7.6-12.6,12.9-2.5,7,2.4,11.6,6.7,16.2s7.8,8.8,12,13,11.8,5.2,17.3.4l13.7-12.1c4.4-4.2,8.7-1.8,8.7-1.8q4,3,8.1,5.7c4.5,2.9,10.7,5.1,13,10.3,1.4,3.3.9,6.4-.1,9.7-1.7,5.1-4.4,10.4-5.1,15.7-1.1,7.6,4.8,11.4,11,13.4l18.3,5.8c6.9,2.2,13.9,1.3,16.9-6.2,2-4.9,3.3-10.1,5.1-15,4.2-11.2,15.4-7.8,24.9-7.6,5.3.1,10.3.3,13.5,5.4,1.3,2.2,1.7,4.7,2.2,7.2,1.2,5.5,1.5,13.7,5.7,17.8s11,2.8,16.9,1.6,11.9-2.3,17.7-3.7c16.4-3.9,6.6-20.2,6.1-31-.3-6,3.8-9.5,8.8-11.8s11-6.9,16.6-7.7c7.4-1.1,11.8,5.5,16.1,10.3s9.5,11.4,17.3,8.5c4.8-1.8,9.1-7,12.8-10.3s8.4-6.4,11.5-10.4c5.4-7.2.2-13.5-4.7-18.8s-10.7-9.6-9.5-16.8c.9-5.6,6.3-10.8,9.2-15.5s6.3-8,12-7.5c10.5,1,27.1,13.9,33.2-1.5,1.9-4.9,3.4-10.1,5.2-15.1s4.9-11.1,2.5-16.6c-5.5-12.4-29.6-5.1-30.4-21.4-.1-2.8.5-5.8.7-8.6S1023.3,490.3,1023.7,487.2ZM865.2,600A111.6,111.6,0,1,1,976.8,488.4,111.6,111.6,0,0,1,865.2,600Z" transform="translate(0 0)"/></g><g id="planet"><path id="planet-right" class="cls-3" d="M1255.2,172.8l-8.5,4.4a29.9,29.9,0,0,1-4.1,2.1c-.4.1-1.2.9-1.6.8s-2.1-2.5-2.5-3q-6.9-8.4-14.2-16.4-14.6-16.2-30.7-31A489.1,489.1,0,0,0,805.7,3.3C748.9,9.9,693.6,25.9,642.4,51.5A482.2,482.2,0,0,0,568.5,97c-6,4.5-12.9,8.3-16.1,15.3s-2.5,17.8,2,25.6c3.1,5.4,7.6,10.4,11.3,15.4l12.9,17.4c4.3,5.8,10.1,11.1,18,10.7s11.2-4.8,16.1-8.4l17.8-13.1c5.2-3.9,10.3-7.9,16.4-10.4,21.1-8.8,45-1.5,58.6,16.6,7.2,9.6,15.2,19.1,21.4,29.4,13.5,22.1,8.2,51-13.1,66.1-18.2,12.8-35.4,26.2-50.8,42.5a270.4,270.4,0,0,0-15.7,351,275.9,275.9,0,0,0,114.1,85.5,269.7,269.7,0,0,0,130.8,17.3,274.3,274.3,0,0,0,118.8-43.2c9.8-6.4,18.5-13.4,30.4-15.4a50,50,0,0,1,35.7,7.6c11.8,7.9,19.8,21.9,28.1,33.1,12.7,17.1,17.7,38.8,6.4,58.2-7.6,12.9-22,21.2-33.7,30-3.7,2.8-7.6,5.4-11.1,8.3-7.6,6.4-7.8,16.7-2.2,24.4,6.8,9.2,13.7,18.4,20.5,27.6s13,18.2,25.6,17.7c6.6-.3,11.6-3.7,16.9-7.2s12.7-8.5,19-12.9A471.3,471.3,0,0,0,1208,834a487.8,487.8,0,0,0,141.1-301.6q1.9-21.7,1.9-43.4c0-3-.4-35.4-1.2-35.4,1.3,0,4.7-3.3,5.8-4.1l9.4-6.8,6.7-4.9,16.5-12.2q20.8-15.5,41.3-31.3,52.3-40.4,102.5-83.4c36.2-31.2,71.5-63.6,104.4-98.3,28.3-29.8,56-61.6,76.4-97.5,7.3-12.9,14.3-26.8,17.4-41.4,1.7-8,1.9-16.9-2.5-24.1-9.7-16.1-34.1-16.9-50.6-16.6-31.5.5-63,7.6-93.3,15.4-38.3,9.8-76.1,22-113.4,35.2s-74.8,27.7-111.7,43c-29.6,12.3-59.1,25.1-88.1,38.9ZM1028.1,636.1a223,223,0,0,1-359.2-35.9A222.1,222.1,0,0,1,795.7,276.5a227,227,0,0,1,143.9,3.9,221.6,221.6,0,0,1,88.5,355.7Zm593.5-488.8c-16.2,30.4-41.3,56.3-65.6,80.3-33.5,33.2-69.6,63.9-106.2,93.6-80.5,65.2-164.6,126-250.2,184.3-27.5,18.8-55.2,37.4-83.1,55.6,14-53.6,14.9-113.9-7.2-165.6a99,99,0,0,0-4.7-9.7c50-23.1,99.1-48.3,147.7-74.3,29.3-15.7,58-32.3,86.7-48.9,24.7-14.2,49.5-28.3,73.9-43.1,19.9-12.1,40.6-24.3,58.2-39.6,4.6-4,17-14.3,6-18.1-4.8-1.6-10.2-1.7-15.2-1.9-8-.2-16,.3-23.9.9-20.5,1.5-40.9,4.2-61.2,7.1-36.5,5.2-72.8,12.1-109.4,17-4.7.6-9.4,1.3-14.1,1.8,10.4-4.6,21.4-8.2,32.1-12.1q19.1-7,38.3-13.7c33.6-11.7,67.4-22.8,101.6-32.8s70.5-19.7,106.5-25.8a331.9,331.9,0,0,1,44.9-5c11-.4,22.4-.1,33,3,7.3,2.1,14.6,6.1,17.9,13.3s1.3,17.4-1.9,25.2A88.9,88.9,0,0,1,1621.6,147.3Zm-365.7,52.1c27.3-3.6,56.3-7.7,83.8-4.2,7.1.9,17.5,2.3,21.7,9s-2.6,16.4-7.2,21.7c-15.4,17.5-36.3,30.5-55.7,43.1A481,481,0,0,0,1255.9,199.4Z" transform="translate(0 0)"/><path id="planet-left" class="cls-2" d="M493,807.8c55.7,64.2,128.6,114.8,209.3,142,76.8,25.9,159.2,33.7,239.3,20.6a487.1,487.1,0,0,0,141.9-46.2c-19.1-6.3-29.2-24.4-40.5-39.6-5.3-7.2-10.3-14.2-12.5-23.1a49.4,49.4,0,0,1,6.7-38.9c4.9-7.3,11.7-12.3,18.6-17.5l20.4-15.2a43.8,43.8,0,0,0,5.9-4.9,17.2,17.2,0,0,0,2.5-19.7c-3.3-6.1-8.4-11.6-12.4-17.1s-8.2-13.2-14.4-16.4c-12.8-6.5-24.1,5.2-34.1,11.6-23.6,15.2-49.2,26.5-75.9,34.7-52.9,16.3-112.6,17-165.8,2-57.2-16.1-108.4-47.3-147.9-91.9a300.9,300.9,0,0,1-72.6-159c-8.2-61,2.4-124,30.7-178.7A302.9,302.9,0,0,1,647,275.9a384.2,384.2,0,0,1,30.4-26.8c9.9-8,28.3-14.7,25.9-30.3-1.1-7.2-7.9-13.9-12.1-19.5s-7.8-11.2-12.2-16.2c-7.3-8.3-17.9-7-26-1l-20,14.8c-6.6,4.9-13,10-20.8,12.9a49.4,49.4,0,0,1-43.1-4.7c-7.5-4.8-12.6-11.4-17.8-18.4l-15.1-20.3c-6.8-9.1-11.3-19.2-11.4-30.8A487.9,487.9,0,0,0,375.5,524.7q.2,3.3.5,6.6c.2,1.9,1.3,5.6.7,7.3s-1.8,2-3.1,3l-7.6,5.5Q312.2,586.3,260.3,628c-47.7,38.3-94.3,78.3-137.9,121.1-38.8,38-77.9,79-104.5,126.7-10.6,18.9-31.2,56.6-5.5,72.7,10.3,6.4,23.4,7.7,35.2,8,17.6.4,35.3-2,52.6-5,46.2-8.2,91.5-22.1,135.9-37.1,47.5-16.1,94.4-34.1,140.7-53.4,34.4-14.4,68.8-29.2,102.1-46C483.7,812.8,488.4,810.4,493,807.8ZM108.1,838c12.4-23.2,30-43.5,47.9-62.6,23.8-25.4,49.5-48.9,75.8-71.6,29.5-25.5,60-49.9,90.9-73.8s64.7-48.1,96.6-72.9c33.7-26.1,66.4-53.5,101.6-77.5-2.3,38.6,2.3,78.4,14.1,115.3a247.1,247.1,0,0,0,16.9,40.3c-57.3,28.7-113.4,59.6-169,91.7-24.3,14-48.7,28.2-72.2,43.7-9.6,6.3-19.1,12.8-28,19.9-5.9,4.7-12,9.7-16.4,15.8s-1.5,9.9,5.4,11.7c10.9,2.8,22.8,2.2,33.9,1.8,34.4-1.2,68.7-5.8,102.8-10.6q22.1-3.1,44-6.7c7.6-1.2,15.4-3.2,23.1-3.9l1.1-.2c-14.4,5.6-28.9,11-43.4,16.2-33.4,12.1-67,23.5-101,34.1-38.6,12-77.6,23.1-117.2,31.1a435,435,0,0,1-50.9,7.6c-12.9,1-26.3,1.5-39-1.1-8.3-1.7-17.4-5-22-12.6s-2.6-18.5.7-26.8A87.9,87.9,0,0,1,108.1,838Zm370-48.3c-56.5,7.3-188.3,21.7-45.3-69.1A483.1,483.1,0,0,0,478.1,789.7Z" transform="translate(0 0)"/></g></g></svg>