<?xml version="1.0" encoding="UTF-8" standalone="no"?>
<!-- Generator: Adobe Illustrator 19.1.0, SVG Export Plug-In . SVG Version: 6.00 Build 0)  -->

<svg
   xmlns:dc="http://purl.org/dc/elements/1.1/"
   xmlns:cc="http://creativecommons.org/ns#"
   xmlns:rdf="http://www.w3.org/1999/02/22-rdf-syntax-ns#"
   xmlns:svg="http://www.w3.org/2000/svg"
   xmlns="http://www.w3.org/2000/svg"
   xmlns:sodipodi="http://sodipodi.sourceforge.net/DTD/sodipodi-0.dtd"
   xmlns:inkscape="http://www.inkscape.org/namespaces/inkscape"
   version="1.1"
   id="Layer_1"
   x="0px"
   y="0px"
   viewBox="0 0 1731.4 1015.64"
   xml:space="preserve"
   inkscape:version="0.91 r13725"
   sodipodi:docname="logo.svg"
   width="1731.4"
   height="1015.64"><metadata
     id="metadata3726"><rdf:RDF><cc:Work
         rdf:about=""><dc:format>image/svg+xml</dc:format><dc:type
           rdf:resource="http://purl.org/dc/dcmitype/StillImage" /><dc:title></dc:title></cc:Work></rdf:RDF></metadata><defs
     id="defs3724" /><sodipodi:namedview
     pagecolor="#ffffff"
     bordercolor="#666666"
     borderopacity="1"
     objecttolerance="10"
     gridtolerance="10"
     guidetolerance="10"
     inkscape:pageopacity="0"
     inkscape:pageshadow="2"
     inkscape:window-width="1594"
     inkscape:window-height="1025"
     id="namedview3722"
     showgrid="false"
     inkscape:zoom="0.44"
     inkscape:cx="744.34458"
     inkscape:cy="525.34648"
     inkscape:window-x="0"
     inkscape:window-y="0"
     inkscape:window-maximized="0"
     inkscape:current-layer="Layer_1" /><style
     type="text/css"
     id="style3658">
	.st0{fill:none;}
	.st1{fill:#005B8E;}
	.st2{fill:#27AAE1;}
	.st3{opacity:0.11;fill:#005B8E;}
</style><g
     id="g3694"
     transform="translate(0,-0.06914091)"><path
       class="st0"
       d="m 478.1,789.7 c -17.2,-21.9 -32.3,-45.1 -45.3,-69.1 -143,90.8 -11.2,76.5 45.3,69.1 z"
       id="path3696"
       inkscape:connector-curvature="0"
       style="fill:none" /><path
       class="st0"
       d="m 476.8,798.4 c 0,0 -226.5,40 -212.2,11 11,-22.4 99,-71.4 159.4,-106 43.8,-25.1 91.1,-49.6 128,-68.2 C 520.3,575.4 519.3,508.5 521,479.6 482.5,505.8 433.7,547.3 383.8,584 268.8,668.6 144.4,770.1 108.2,837.9 37.3,970.6 476.8,798.4 476.8,798.4 Z"
       id="path3698"
       inkscape:connector-curvature="0"
       style="fill:none" /><path
       class="st0"
       d="m 1263.1,182.9 c -5.6,2.2 -9.1,3.5 -10,3.9 1,-0.1 5.2,-0.7 11.8,-1.5 41.8,-5.3 228.5,-41.5 216.3,-16.8 -10.2,20.7 -107.5,73.7 -162.5,105.9 -4.1,2.4 -9.3,5.4 -13.6,7.9 l 0,0 c -0.1,0.1 -0.2,0.1 -0.3,0.2 -0.2,0.1 -0.4,0.3 -0.7,0.4 l 0,0 c -37.4,21.4 -77.2,42.3 -110.8,59.4 -45.8,23.3 -80.2,39.5 -81.8,40.3 -4.6,2.1 -7,3.3 -7,3.3 0,0 39.8,68.5 11.9,175.3 0,0 19.3,-12.4 50.2,-33.3 l 10.2,-6.8 c 0,0 1,-0.7 2.8,-2 21.3,-14.4 46.8,-31.8 74.7,-51.4 28,-19.6 58.3,-41.7 89.2,-64.5 4.7,-3.4 9.3,-6.9 14,-10.4 112.9,-84.4 230.1,-181.8 264,-245.4 64.5,-120.7 -293,10.7 -358.4,35.5 z"
       id="path3700"
       inkscape:connector-curvature="0"
       style="fill:none" /><path
       class="st0"
       d="m 1273.5,197.2 c -5.1,0.5 -12.3,1.5 -17.6,2.2 16.4,22.3 30.5,45.6 42.6,69.5 4.3,-2.8 9.3,-6.3 13.1,-8.8 108,-72.3 20.9,-69.4 -38.1,-62.9 z"
       id="path3702"
       inkscape:connector-curvature="0"
       style="fill:none" /><path
       class="st0"
       d="m 1010.3,322.9 c -43.1,-38.4 -97,-56.9 -150.5,-56.2 -60.7,0.4 -120.9,25.5 -164.5,74.2 -81.8,91.5 -73.8,231.9 17.9,313.5 74.7,66.5 181.8,73.5 263.1,24.5 18.9,-11.3 36.4,-25.6 51.8,-42.8 81.6,-91.4 73.6,-231.6 -17.8,-313.2 z m 7.8,63.3 -12.3,10.8 c -4.1,3.6 -5,9.5 -2.3,14.1 2.6,4.4 4.9,9 7,13.7 2.2,4.8 7.4,7.5 12.6,6.4 l 16.8,-3.5 c 6.1,-1.3 12.2,2.6 13.4,8.8 l 5,23.9 c 1.3,6.1 -2.6,12.2 -8.8,13.4 l -16.8,3.5 c -5.2,1.1 -8.9,5.6 -9,10.9 0,5.2 -0.4,10.3 -0.9,15.5 -0.6,5.4 2.7,10.4 7.8,12 l 15.6,4.9 c 6.1,1.9 9.4,8.5 7.3,14.5 l -8,23.4 c -2,5.8 -8.3,9 -14.2,7.1 l -16.6,-5.2 c -5,-1.6 -10.4,0.5 -13.1,5 -1.3,2.2 -2.7,4.3 -4.1,6.5 -1.4,2 -2.8,4 -4.2,6 -3.3,4.4 -3,10.5 0.7,14.5 l 10.7,11.6 c 4.3,4.7 3.9,12 -0.9,16.2 L 984.9,637 c -4.6,4.1 -11.7,3.7 -15.8,-0.8 l -11.3,-12.3 c -3.5,-3.8 -9.3,-4.8 -13.8,-2.2 -4.8,2.7 -9.7,5.1 -14.8,7.3 -4.9,2.1 -7.6,7.4 -6.5,12.7 l 3.3,15.6 c 1.3,6.1 -2.6,12.2 -8.8,13.4 L 892,676 c -6.1,1.3 -12.2,-2.6 -13.4,-8.8 l -3.3,-15.6 c -1.1,-5.2 -5.7,-9 -11.1,-9 -5.6,0 -11.1,-0.2 -16.6,-0.8 -5.2,-0.5 -10.1,2.6 -11.8,7.6 l -5.4,15.8 c -2,5.8 -8.3,9 -14.2,7.1 L 792,664.6 c -6.1,-1.9 -9.4,-8.5 -7.3,-14.5 l 5.1,-15 c 1.8,-5.2 -0.4,-10.8 -5.2,-13.6 -2.1,-1.2 -4.1,-2.4 -6.2,-3.7 -4.7,-3 -9.3,-6.2 -13.6,-9.7 L 745,625.9 c -4.6,4.1 -11.7,3.7 -15.8,-0.8 l -16.8,-18.2 c -4.3,-4.7 -3.9,-12 0.9,-16.2 l 12.3,-10.8 c 4.1,-3.6 5,-9.5 2.3,-14.1 -2.6,-4.4 -4.9,-9 -7,-13.7 -2.2,-4.8 -7.4,-7.5 -12.6,-6.4 l -16.8,3.5 c -6.1,1.3 -12.2,-2.6 -13.4,-8.8 l -5,-23.9 c -1.3,-6.1 2.6,-12.2 8.8,-13.4 l 16.8,-3.5 c 5.2,-1.1 8.9,-5.6 9,-10.9 0,-5.2 0.4,-10.3 0.9,-15.5 0.6,-5.4 -2.7,-10.4 -7.8,-12 l -15.6,-4.9 c -6.1,-1.9 -9.4,-8.5 -7.3,-14.5 l 8,-23.4 c 2,-5.8 8.3,-9 14.2,-7.1 l 16.6,5.2 c 5,1.6 10.4,-0.5 13.1,-5 1.3,-2.2 2.7,-4.3 4.1,-6.5 1.4,-2 2.8,-4 4.2,-6 3.3,-4.4 3,-10.5 -0.7,-14.5 l -10.7,-11.6 c -4.3,-4.7 -3.9,-12 0.9,-16.2 l 19.1,-16.8 c 4.6,-4.1 11.7,-3.7 15.8,0.8 l 11.3,12.3 c 3.5,3.8 9.3,4.8 13.8,2.2 4.8,-2.7 9.7,-5.1 14.8,-7.3 4.9,-2.1 7.6,-7.4 6.5,-12.7 l -3.3,-15.6 c -1.3,-6.1 2.6,-12.2 8.8,-13.4 l 25.2,-5.3 c 6.1,-1.3 12.2,2.6 13.4,8.8 l 3.3,15.6 c 1.1,5.2 5.7,9 11.1,9 5.6,0 11.1,0.2 16.6,0.8 5.2,0.5 10.1,-2.6 11.8,-7.6 l 5.4,-15.8 c 2,-5.8 8.3,-9 14.2,-7.1 l 24.2,7.7 c 6.1,1.9 9.4,8.5 7.3,14.5 l -5.1,15 c -1.8,5.2 0.4,10.8 5.2,13.6 2.1,1.2 4.1,2.4 6.2,3.7 2.2,1.4 4.3,2.8 6.5,4.3 4.3,3 10.1,2.8 14,-0.7 l 13.1,-11.5 c 4.6,-4.1 11.7,-3.7 15.8,0.8 l 16.4,18 c 4.3,4.7 3.9,12 -0.9,16.2 z"
       id="path3704"
       inkscape:connector-curvature="0"
       style="fill:none" /><path
       class="st0"
       d="m 931.3,402 c 7.2,7.1 12.5,16.3 15,26.9 6.9,29.9 -11.8,59.7 -41.7,66.6 -29.9,6.9 -59.7,-11.8 -66.6,-41.7 -6.9,-29.9 11.8,-59.7 41.7,-66.6 6.7,-1.5 13.4,-1.7 19.9,-0.9 -17.9,-5.5 -37.6,-6.6 -57.3,-2.1 -56.9,12.8 -95.3,69.8 -84.4,125.4 11.5,59 71,96.6 131.4,83.1 56.9,-12.8 95.2,-69.8 84.4,-125.4 -5.5,-27.4 -21.2,-50.1 -42.4,-65.3 z m -85.7,158.9 c -12.6,2 -24.4,-6.7 -26.4,-19.3 -2,-12.6 6.7,-24.4 19.3,-26.4 12.6,-2 24.4,6.7 26.4,19.3 2,12.7 -6.7,24.5 -19.3,26.4 z"
       id="path3706"
       inkscape:connector-curvature="0"
       style="fill:none" /><path
       class="st1"
       d="m 1255.2,172.8 c -4.5,2.3 -10.2,5.2 -14.3,7.3 -19.7,-24.2 -41.3,-46.1 -64.4,-65.5 0,-0.1 -0.1,-0.1 -0.2,-0.2 -3.3,-2.8 -6.6,-5.4 -9.9,-8.1 -4.7,-3.7 -9.3,-7.2 -14.1,-10.8 C 1076.9,39.8 987.8,7.8 896.5,1.2 889,0.7 881.4,0.3 873.9,0.1 c -0.3,0 -0.6,0 -0.9,0 -2.6,-0.1 -5.1,0 -7.7,0 -1.5,0 -3,0 -4.6,0 -2.2,0 -4.3,-0.1 -6.6,0 -1.5,0 -2.9,0.1 -4.3,0.1 -0.8,0 -1.6,0.1 -2.4,0.1 -12.7,0.3 -25.3,1.2 -37.9,2.5 -0.5,0.1 -1,0.1 -1.4,0.2 -12.3,1.4 -24.6,3.1 -36.8,5.4 -1.4,0.3 -2.7,0.5 -4.1,0.8 -3.4,0.6 -6.7,1.4 -10,2.1 -2.6,0.5 -5.2,1.1 -7.8,1.7 -2.6,0.6 -5.3,1.2 -7.9,1.9 -5.1,1.3 -10.1,2.6 -15.1,4 -1.1,0.3 -2.1,0.6 -3.2,0.9 -6.6,1.9 -13.2,4 -19.8,6.2 -0.2,0.1 -0.4,0.1 -0.5,0.2 -0.1,0 -0.2,0 -0.3,0.1 -46.4,15.8 -91.3,39 -132.8,69.7 -4.7,3.5 -9.3,7.1 -13.9,10.8 0,0 -15.5,16.1 3.8,38.4 l 21.2,28.5 c 3.1,4.2 9.9,7.8 15,7.7 3.7,-0.1 7,-1.2 9.9,-3.4 l 30.9,-22.8 c 9.3,-6.9 20.6,-10.1 32.6,-9.4 l 0.5,0 0.5,0.1 c 13.9,1.3 26.5,8.5 34.8,19.7 l 19,25.7 c 7.9,10.7 11.9,24 10,37.2 -2.1,14.1 -9.9,26.3 -21.9,34.1 l -1.5,1 c -4.5,3 -8.4,5.7 -12,8.5 l -2.8,2.2 c -3.8,2.9 -7.1,5.6 -10.2,8.2 -0.8,0.7 -1.6,1.4 -2.4,2.1 l -1.1,0.9 c -3,2.6 -5.9,5.3 -8.8,8.1 l -0.9,0.8 c -1,1 -1.8,1.7 -2.4,2.4 -4.4,4.3 -8.1,8.2 -11.3,11.8 -48.2,53.9 -72.5,123.4 -68.3,195.5 4.1,72.2 36.2,138.5 90.3,186.6 3.1,2.9 6.4,5.5 9.6,8.2 0.5,0.4 1.1,0.9 1.7,1.3 l 1.7,1.3 c 2.3,1.8 4.4,3.4 6.5,5 0.8,0.6 1.7,1.2 2.6,1.9 l 1.4,0.9 c 2.1,1.5 4.1,3 6.1,4.3 1.1,0.7 2.1,1.4 3.1,2 l 1.3,0.8 c 2.1,1.3 4.1,2.6 6.1,3.9 1.2,0.7 2.5,1.4 3.7,2.2 l 0.8,0.5 c 2,1.2 4,2.3 6,3.4 1.6,0.9 3.2,1.7 4.8,2.6 2,1 4,2 6.1,3.1 1.6,0.7 3.2,1.5 4.8,2.3 2.1,0.9 4.2,1.9 6.2,2.8 1.6,0.7 3.3,1.4 4.9,2.1 2,0.8 4.2,1.7 6.3,2.5 l 0.6,0.2 c 1.4,0.5 2.9,1.1 4.3,1.6 2.2,0.8 4.4,1.5 6.5,2.2 l 1.4,0.5 c 1.4,0.5 2.4,0.8 3.4,1.1 2.3,0.7 4.6,1.4 6.9,2 l 1.7,0.5 c 1,0.3 2,0.6 2.9,0.8 2.5,0.7 5,1.3 7.6,1.9 l 1.6,0.4 c 0.9,0.2 1.7,0.4 2.3,0.5 3.6,0.8 7.2,1.5 10.9,2.1 l 1,0.2 c 3.8,0.6 7.6,1.2 11.5,1.7 0.7,0.1 1.4,0.2 2,0.3 l 1.5,0.2 c 3,0.3 5.6,0.6 8.2,0.8 l 4.9,0.3 c 2.3,0.2 4.6,0.3 7,0.4 1.1,0.1 2.4,0.1 3.6,0.1 l 1.3,0 c 2.3,0 4.6,0.1 6.9,0.1 1.4,0 2.8,-0.1 4.1,-0.1 l 1.1,0 c 2.2,-0.1 4.4,-0.2 6.6,-0.3 1.7,-0.1 3.5,-0.2 5.2,-0.3 2.2,-0.2 4.4,-0.3 6.6,-0.5 1.7,-0.1 3.4,-0.3 5.2,-0.5 2.2,-0.3 4.4,-0.5 6.6,-0.8 1.7,-0.2 3.4,-0.4 5.1,-0.7 2.2,-0.4 4.4,-0.7 6.6,-1.1 l 0.6,-0.1 c 1.5,-0.3 3,-0.6 4.4,-0.8 2.3,-0.5 4.5,-0.9 6.7,-1.5 l 1.3,-0.3 c 1.2,-0.3 2.4,-0.5 3.6,-0.8 2.3,-0.6 4.6,-1.2 6.9,-1.8 l 1.6,-0.5 c 1.1,-0.2 2,-0.5 2.9,-0.8 2.5,-0.7 4.9,-1.5 7.5,-2.3 l 4,-1.3 c 3.2,-1.1 6.5,-2.3 10.1,-3.7 l 1.1,-0.4 c 3.6,-1.4 7.2,-2.9 10.8,-4.5 l 3.1,-1.5 c 2.8,-1.3 5.3,-2.4 7.7,-3.6 0.9,-0.4 1.7,-0.9 2.6,-1.3 l 2.1,-1.1 c 2.1,-1.1 4,-2.1 5.9,-3.2 1.1,-0.6 2.1,-1.2 3.1,-1.8 l 1.3,-0.7 c 2.1,-1.2 4.1,-2.4 6.1,-3.6 1.2,-0.8 2.4,-1.5 3.6,-2.3 l 0.8,-0.5 c 2,-1.3 3.9,-2.5 5.8,-3.8 1.5,-1 2.9,-2 4.4,-3 l 1.5,-1.1 c 0.7,-0.4 1.2,-0.8 1.7,-1.2 9.2,-6.7 20.6,-9.9 32.3,-9.1 14.4,1 27.4,8.1 35.8,19.4 l 18.7,25.2 c 11.6,15.6 13.9,36.7 4.6,53.6 -3.4,6.2 -8,11.5 -13.6,15.7 l -31.1,23.2 c -0.8,0.6 -1.6,1.4 -2.4,2.1 -5.7,6.2 -6.2,15.4 -1.2,22.1 l 21,28.2 c 0.8,1.1 3.5,4.7 6.6,8.9 6.8,9 19.3,11.7 29.2,6.2 8.7,-5.5 17.3,-11.2 25.7,-17.2 0.1,-0.1 0.2,-0.2 0.3,-0.2 2,-1.4 4,-2.8 6,-4.3 2.7,-2 5.3,-4.1 7.9,-6.1 0.1,-0.1 0.3,-0.2 0.4,-0.3 55.4,-42.8 99.2,-95.2 130.6,-153.1 0.4,-0.8 0.8,-1.6 1.3,-2.4 2.4,-4.4 4.7,-8.8 6.9,-13.3 1.5,-3 3,-6 4.4,-9.1 0.9,-2 1.9,-4 2.8,-6 2.2,-4.9 4.4,-10 6.5,-15 0.1,-0.2 0.2,-0.4 0.3,-0.6 2.4,-5.9 4.7,-11.8 7,-17.7 0,-0.1 0.1,-0.2 0.1,-0.3 4.5,-12.3 8.5,-24.8 12.1,-37.4 0.1,-0.3 0.2,-0.6 0.2,-0.9 12.1,-43.5 18.1,-88.6 17.8,-133.7 0,-0.6 0,-1.2 0,-1.8 0,-3.7 -0.1,-7.5 -0.2,-11.1 0,-0.9 0,-1.8 -0.1,-2.7 -0.2,-3.5 -0.3,-7 -0.5,-10.5 0,-0.9 -0.1,-1.8 -0.2,-2.8 -0.2,-3.6 -0.2,-3.3 -0.2,-3.3 3.4,-2.4 8.5,-6 14.8,-10.7 73.8,-53.6 328.6,-245.3 364.3,-364.1 37.5,-125.1 -362.7,38.7 -473.7,94 z m -227.1,463.3 c -15.4,17.2 -32.9,31.5 -51.8,42.8 -81.3,49.1 -188.4,42 -263.1,-24.5 -91.7,-81.7 -99.7,-222 -17.9,-313.5 43.6,-48.8 103.8,-73.8 164.5,-74.2 53.5,-0.7 107.4,17.8 150.5,56.2 91.4,81.6 99.4,221.8 17.8,313.2 z m 593.5,-488.8 c -33.9,63.6 -151.1,161 -264,245.4 -4.7,3.5 -9.3,6.9 -14,10.4 -30.9,22.8 -61.3,44.9 -89.2,64.5 -27.9,19.6 -53.4,37 -74.7,51.4 -1.8,1.3 -2.8,2 -2.8,2 l -10.2,6.8 c -31,20.8 -50.2,33.3 -50.2,33.3 27.9,-106.7 -11.9,-175.3 -11.9,-175.3 0,0 2.4,-1.1 7,-3.3 1.6,-0.8 36,-17 81.8,-40.3 33.6,-17.1 73.4,-38 110.8,-59.4 l 0,0 c 0.2,-0.1 0.4,-0.3 0.7,-0.4 0.1,-0.1 0.2,-0.1 0.3,-0.2 l 0,0 c 4.3,-2.5 9.5,-5.5 13.6,-7.9 55,-32.1 152.3,-85.2 162.5,-105.9 12.2,-24.6 -174.6,11.6 -216.3,16.8 -6.6,0.8 -10.8,1.4 -11.8,1.5 0.9,-0.4 4.4,-1.7 10,-3.9 65.3,-24.7 422.8,-156.1 358.4,-35.5 z m -365.7,52.1 c 5.3,-0.7 12.5,-1.7 17.6,-2.2 59,-6.5 146.1,-9.4 38.2,63 -3.8,2.5 -8.8,6 -13.1,8.8 -12.1,-24 -26.2,-47.3 -42.7,-69.6 z"
       id="path3708"
       inkscape:connector-curvature="0"
       style="fill:#005b8e" /><path
       class="st2"
       d="m 493,807.8 c 13.7,15.8 28.5,30.9 44.5,45.1 39.7,35.4 83.6,63.1 129.8,83.3 12.2,5.3 24.5,10.1 36.9,14.3 2.5,-0.1 5,-0.2 7.5,-0.3 35.5,12.5 72,20.7 108.8,24.8 56.9,4.9 114.4,-0.2 169.6,-15 32.1,-8.6 63.4,-20.6 93.4,-35.8 -9.4,-3.1 -17.8,-9 -23.9,-17.2 l -21,-28.3 c -13.9,-18.7 -12.5,-44.8 3.2,-62 2.1,-2.3 4.4,-4.3 6.7,-6.1 l 31.1,-23.2 c 1.4,-1.1 2.7,-2.4 3.8,-3.8 4.4,-6.1 4.3,-14.4 -0.2,-20.4 l -19.6,-26.4 c -5.5,-7.4 -16.9,-9.1 -24.5,-3.6 -0.8,0.6 -1.5,1.1 -2.3,1.6 l -1.2,0.8 c -1.6,1.1 -3.3,2.3 -4.9,3.4 -2.1,1.4 -4.3,2.8 -6.4,4.2 l -0.8,0.5 c -1.4,0.9 -2.8,1.8 -4.2,2.6 -2.2,1.4 -4.5,2.7 -6.8,4 l -1.2,0.7 c -1.2,0.7 -2.5,1.4 -3.7,2.1 -2.2,1.2 -4.4,2.4 -6.6,3.5 l -2,1.1 c -1.1,0.6 -2.1,1.1 -3.2,1.7 -2.7,1.4 -5.5,2.6 -8.3,3.9 l -1.3,0.6 c -0.8,0.4 -1.7,0.8 -2.5,1.2 -4.1,1.8 -8.2,3.5 -12.3,5.1 l -1.1,0.4 c -4,1.5 -7.6,2.9 -11.3,4.1 -1,0.3 -1.9,0.6 -2.8,0.9 l -1.5,0.5 c -2.9,0.9 -5.6,1.8 -8.3,2.6 -1.2,0.4 -2.4,0.7 -3.6,1 l -1.5,0.4 c -2.7,0.7 -5.2,1.4 -7.7,2 -1.4,0.3 -2.9,0.7 -4.3,1 l -1.1,0.3 c -2.5,0.6 -4.9,1.1 -7.4,1.6 -1.7,0.3 -3.4,0.6 -5.1,0.9 l -0.6,0.1 c -2.4,0.4 -4.9,0.9 -7.4,1.2 -1.9,0.3 -3.8,0.6 -5.7,0.8 -2.4,0.3 -4.9,0.6 -7.3,0.9 -1.9,0.2 -3.9,0.4 -5.8,0.6 -2.5,0.2 -4.9,0.4 -7.4,0.6 -1.9,0.1 -3.9,0.3 -5.8,0.3 -2.5,0.1 -5,0.2 -7.5,0.3 l -1,0 c -1.6,0 -3.1,0.1 -4.7,0.1 -2.5,0 -5.1,0 -7.6,-0.1 l -1.3,0 c -1.4,0 -2.8,-0.1 -4.2,-0.1 -2.6,-0.1 -5.2,-0.3 -7.7,-0.4 l -4.5,-0.3 -0.9,-0.1 c -3,-0.2 -5.9,-0.6 -8.9,-0.9 l -1.4,-0.1 c -0.9,-0.1 -1.9,-0.2 -2.8,-0.3 -4.3,-0.5 -8.7,-1.2 -13,-1.9 l -0.9,-0.2 c -4.1,-0.7 -8.1,-1.5 -12.1,-2.3 -1,-0.2 -1.9,-0.4 -2.9,-0.7 l -1.5,-0.3 c -2.8,-0.7 -5.7,-1.3 -8.5,-2.1 -1.2,-0.3 -2.4,-0.7 -3.5,-1 l -1.5,-0.4 c -2.6,-0.7 -5.1,-1.4 -7.7,-2.2 -1.4,-0.4 -2.8,-0.9 -4.2,-1.3 l -1.2,-0.4 c -2.4,-0.8 -4.9,-1.6 -7.3,-2.5 -1.6,-0.6 -3.3,-1.2 -4.9,-1.8 l -0.6,-0.2 c -2.4,-0.9 -4.7,-1.8 -7.1,-2.8 -1.8,-0.8 -3.7,-1.5 -5.5,-2.3 -2.3,-1 -4.6,-2 -6.9,-3.1 -1.8,-0.8 -3.6,-1.7 -5.4,-2.6 -2.3,-1.1 -4.6,-2.3 -6.8,-3.4 -1.8,-0.9 -3.5,-1.8 -5.3,-2.8 -2.3,-1.2 -4.5,-2.5 -6.7,-3.8 l -0.9,-0.5 c -1.4,-0.8 -2.8,-1.7 -4.2,-2.5 -2.3,-1.4 -4.5,-2.8 -6.7,-4.2 l -1.1,-0.7 c -1.3,-0.8 -2.5,-1.6 -3.8,-2.4 -2.3,-1.5 -4.6,-3.2 -6.8,-4.8 l -1.3,-0.9 c -1.1,-0.7 -2.1,-1.5 -3.2,-2.3 -2.4,-1.8 -4.8,-3.6 -7.1,-5.5 l -1.5,-1.2 c -0.8,-0.6 -1.6,-1.2 -2.4,-1.9 -3.6,-3 -7.2,-6 -10.7,-9.1 -60.4,-53.7 -96.1,-127.7 -100.7,-208.3 -4.6,-80.5 22.5,-158 76.3,-218.2 3.6,-4.1 7.7,-8.3 12.5,-13.1 1,-1 2,-1.9 3,-2.9 l 0.8,-0.8 c 3.2,-3.1 6.5,-6.1 9.8,-9 l 1,-0.9 c 1,-0.8 1.9,-1.7 2.9,-2.5 3.5,-3 7.3,-6 11.4,-9.2 l 0.6,-0.5 c 0.6,-0.5 1.1,-0.9 1.7,-1.4 l 0.9,-0.6 c 4,-3 8.4,-6.1 13.5,-9.4 0.7,-0.5 1.2,-0.8 1.6,-1.2 4.3,-2.8 7.1,-7.1 8,-12 0.8,-4.7 -0.3,-9.4 -3.1,-13.2 L 679.9,184 c -3,-4 -7.4,-6.5 -12.4,-7 -3.1,-0.2 -7.8,0.2 -12.1,3.3 l -30.9,22.8 c -8.7,6.4 -19,9.7 -29.8,9.5 -15.2,-0.2 -29.5,-7.6 -38.5,-19.7 l -21.7,-29.2 c -6.2,-8.4 -9.4,-18.3 -9.5,-28.2 -9.2,8.8 -18.2,18 -26.9,27.7 C 402.8,270.1 363,407.2 376.8,539.3 320.4,579.8 40,785.7 2.5,910.8 -37.3,1043.2 415.1,850.9 493,807.8 Z M 108.1,838 c 36.2,-67.8 160.5,-169.3 275.6,-253.9 50,-36.7 98.7,-78.2 137.2,-104.4 -1.7,28.9 -0.7,95.8 31,155.6 -36.9,18.5 -84.1,43.1 -128,68.2 -60.4,34.6 -148.4,83.6 -159.4,106 -14.3,29 212.2,-11 212.2,-11 0,0 -439.4,172.1 -368.6,39.5 z m 370,-48.3 c -56.5,7.3 -188.3,21.7 -45.3,-69.1 13,24.1 28.1,47.2 45.3,69.1 z"
       id="path3710"
       inkscape:connector-curvature="0"
       style="fill:#27aae1" /><path
       class="st3"
       d="m 461.1,981.7 c 0,18.8 182.7,34 408,34 225.3,0 408,-15.2 408,-34 0,-13.8 -99.3,-25.7 -241.6,-31 C 966.6,974.6 893,983 820.5,975 781.2,971.6 742.1,963.5 704.3,950.5 561,955.8 461.1,967.8 461.1,981.7 Z"
       id="path3712"
       inkscape:connector-curvature="0"
       style="opacity:0.11000001;fill:#005b8e" /><path
       class="st2"
       d="m 704.2,950.6 c 37.9,13 76.9,21.1 116.2,24.5 -36.8,-4 -73.3,-12.2 -108.8,-24.8 -2.4,0.1 -4.9,0.2 -7.4,0.3 z"
       id="path3714"
       inkscape:connector-curvature="0"
       style="fill:#27aae1" /><path
       class="st3"
       d="m 704.2,950.6 c 37.9,13 76.9,21.1 116.2,24.5 -36.8,-4 -73.3,-12.2 -108.8,-24.8 -2.4,0.1 -4.9,0.2 -7.4,0.3 z"
       id="path3716"
       inkscape:connector-curvature="0"
       style="opacity:0.11000001;fill:#005b8e" /><circle
       class="st1"
       cx="842.09998"
       cy="538.09998"
       r="23.1"
       id="circle3718"
       style="fill:#005b8e" /><path
       class="st1"
       d="m 986.4,351 -13.1,11.5 c -4,3.5 -9.7,3.7 -14,0.7 -2.1,-1.5 -4.3,-2.9 -6.5,-4.3 -2,-1.3 -4.1,-2.5 -6.2,-3.7 -4.8,-2.7 -7,-8.4 -5.2,-13.6 l 5.1,-15 c 2.1,-6 -1.2,-12.6 -7.3,-14.5 L 915,304.4 c -5.9,-1.9 -12.2,1.3 -14.2,7.1 l -5.4,15.8 c -1.7,4.9 -6.6,8.1 -11.8,7.6 -5.5,-0.5 -11,-0.8 -16.6,-0.8 -5.4,0 -10,-3.7 -11.1,-9 l -3.3,-15.6 c -1.3,-6.1 -7.3,-10.1 -13.4,-8.8 L 814,306 c -6.1,1.3 -10.1,7.3 -8.8,13.4 l 3.3,15.6 c 1.1,5.2 -1.6,10.5 -6.5,12.7 -5.1,2.2 -10,4.7 -14.8,7.3 -4.6,2.6 -10.3,1.6 -13.8,-2.2 l -11.3,-12.3 c -4.2,-4.5 -11.2,-4.9 -15.8,-0.8 l -19.1,16.8 c -4.8,4.2 -5.2,11.5 -0.9,16.2 l 10.7,11.6 c 3.7,4 4,10.1 0.7,14.5 -1.4,2 -2.9,3.9 -4.2,6 -1.4,2.1 -2.8,4.3 -4.1,6.5 -2.7,4.5 -8.1,6.6 -13.1,5 l -16.6,-5.2 c -5.9,-1.9 -12.2,1.3 -14.2,7.1 l -8,23.4 c -2.1,6 1.2,12.6 7.3,14.5 l 15.6,4.9 c 5.1,1.6 8.4,6.7 7.8,12 -0.6,5.1 -0.9,10.3 -0.9,15.5 0,5.3 -3.8,9.8 -9,10.9 l -16.8,3.5 c -6.1,1.3 -10.1,7.3 -8.8,13.4 l 5,23.9 c 1.3,6.1 7.3,10.1 13.4,8.8 l 16.8,-3.5 c 5.2,-1.1 10.4,1.6 12.6,6.4 2.1,4.7 4.5,9.3 7,13.7 2.7,4.7 1.7,10.6 -2.3,14.1 l -12.3,10.8 c -4.8,4.2 -5.2,11.5 -0.9,16.2 l 16.8,18.2 c 4.2,4.5 11.2,4.9 15.8,0.8 l 19.9,-17.5 c 4.3,3.4 8.9,6.7 13.6,9.7 2,1.3 4.1,2.5 6.2,3.7 4.8,2.7 7,8.4 5.2,13.6 l -5.1,15 c -2.1,6 1.2,12.6 7.3,14.5 l 24.2,7.7 c 5.9,1.9 12.2,-1.3 14.2,-7.1 l 5.4,-15.8 c 1.7,-4.9 6.6,-8.1 11.8,-7.6 5.5,0.5 11,0.8 16.6,0.8 5.4,0 10,3.7 11.1,9 l 3.3,15.6 c 1.3,6.1 7.3,10.1 13.4,8.8 l 25.2,-5.3 c 6.1,-1.3 10.1,-7.3 8.8,-13.4 l -3.3,-15.6 c -1.1,-5.2 1.6,-10.5 6.5,-12.7 5.1,-2.2 10,-4.7 14.8,-7.3 4.6,-2.6 10.3,-1.6 13.8,2.2 l 11.3,12.3 c 4.2,4.5 11.2,4.9 15.8,0.8 l 19.1,-16.8 c 4.8,-4.2 5.2,-11.5 0.9,-16.2 l -10.7,-11.6 c -3.7,-4 -4,-10.1 -0.7,-14.5 1.4,-2 2.9,-3.9 4.2,-6 1.4,-2.1 2.8,-4.3 4.1,-6.5 2.7,-4.5 8.1,-6.6 13.1,-5 l 16.6,5.2 c 5.9,1.9 12.2,-1.3 14.2,-7.1 l 8,-23.4 c 2.1,-6 -1.2,-12.6 -7.3,-14.5 l -15.6,-4.9 c -5.1,-1.6 -8.4,-6.7 -7.8,-12 0.6,-5.1 0.9,-10.3 0.9,-15.5 0,-5.3 3.8,-9.8 9,-10.9 l 16.8,-3.5 c 6.1,-1.3 10.1,-7.3 8.8,-13.4 l -5,-23.9 c -1.3,-6.1 -7.3,-10.1 -13.4,-8.8 l -16.8,3.5 c -5.2,1.1 -10.4,-1.6 -12.6,-6.4 -2.1,-4.7 -4.5,-9.3 -7,-13.7 -2.7,-4.7 -1.7,-10.6 2.3,-14.1 l 12.3,-10.8 c 4.8,-4.2 5.2,-11.5 0.9,-16.2 l -16.8,-18.2 c -4,-4.6 -11.1,-5 -15.7,-0.9 z M 889.2,592.7 C 828.9,606.2 769.4,568.6 757.8,509.6 746.9,454 785.3,396.9 842.2,384.2 c 19.8,-4.4 39.4,-3.3 57.3,2.1 -6.4,-0.9 -13.1,-0.7 -19.9,0.9 -29.9,6.9 -48.5,36.7 -41.7,66.6 6.9,29.9 36.7,48.5 66.6,41.7 29.9,-6.9 48.5,-36.7 41.7,-66.6 -2.4,-10.6 -7.8,-19.7 -15,-26.9 21.3,15.2 36.9,37.9 42.3,65.3 10.9,55.6 -27.4,112.6 -84.3,125.4 z"
       id="path3720"
       inkscape:connector-curvature="0"
       style="fill:#005b8e" /></g></svg>