<?xml version="1.0" encoding="utf-8"?>
<!-- Generator: Adobe Illustrator 19.1.0, SVG Export Plug-In . SVG Version: 6.00 Build 0)  -->
<svg version="1.1" id="Layer_1" xmlns="http://www.w3.org/2000/svg" xmlns:xlink="http://www.w3.org/1999/xlink" x="0px" y="0px"
	 viewBox="0 0 1731.4 1499.8" style="enable-background:new 0 0 1731.4 1499.8;" xml:space="preserve">
<style type="text/css">
	.st0{fill:none;}
	.st1{fill:#005B8E;}
	.st2{fill:#27AAE1;}
	.st3{opacity:0.11;fill:#005B8E;}
</style>
<g>
	<path class="st0" d="M848,1302.3c-0.9,4-2,8.6-2,12.2v35.2c0,5.1,0.4,9.4,1.3,13c6.7,24.9,28.5,41.7,54.1,41.7
		c36.7,0,59.5-29.1,59.5-76c0-34.4-18.2-71.5-58-71.5c-25.2,0-47.6,17.9-54.5,43.7L848,1302.3z"/>
	<path class="st0" d="M297.7,1265.4c-28.5,0-40.4,25.8-42.3,44.6h80.1C335.9,1293.1,328.4,1265.4,297.7,1265.4z"/>
	<path class="st0" d="M487.5,1265.4c-28.5,0-40.4,25.8-42.3,44.6h80.1C525.7,1293.1,518.2,1265.4,487.5,1265.4z"/>
	<path class="st0" d="M1578.3,1309.2c-0.5-10.5-3.3-28-15.1-40c-8.1-8.2-19.2-12.4-33.1-12.4c-32.9,0-49.3,27-54.2,52.4H1578.3z"/>
	<path class="st0" d="M1141.4,1404.3c27.4,0,42.9-16.7,48.2-32.4c1.4-3.5,1.6-7.2,1.6-9.2v-33.4c-1,0-1.9,0-2.9,0
		c-32.4,0-55.7,6-67.6,17.6c-6.7,6.5-10,14.8-10,25.2C1110.7,1395.9,1126.6,1404.3,1141.4,1404.3z"/>
	<path class="st0" d="M91.7,1269.2c-25.8,0-44.9,22.5-44.9,59.5c0,31.1,15.7,56.2,44.6,56.2c17.2,0,32.2-11.2,37.4-28.1
		c1.5-4.5,1.9-10.9,1.9-16.1v-29.6c0-4.5-0.4-8.6-1.5-12.4C124.3,1281.9,111.2,1269.2,91.7,1269.2z"/>
	<path class="st1" d="M136.3,1262.4h-0.7c-8.6-15-24.7-28.5-52.8-28.5c-43.8,0-82.7,36.3-82.7,96.2c0,51.7,32.2,89.1,77.5,89.1
		c24.3,0,42.7-10.9,53.2-27h0.7v15.7c0,39.3-22.5,55-52.4,55c-22.1,0-41.6-7.1-53.2-13.9l-10.1,34.8c15.7,9.4,40.4,14.6,63.7,14.6
		c25.1,0,51.7-5.2,70.4-22.1c19.1-17.2,27-44.6,27-82.7v-103.3c0-25.1,0.8-40.1,1.5-52.4h-40.1L136.3,1262.4z M130.7,1340.7
		c0,5.2-0.4,11.6-1.9,16.1c-5.2,16.8-20.2,28.1-37.4,28.1c-28.8,0-44.6-25.1-44.6-56.2c0-37.1,19.1-59.5,44.9-59.5
		c19.5,0,32.6,12.7,37.4,29.6c1.1,3.7,1.5,7.9,1.5,12.4V1340.7z"/>
	<path class="st1" d="M300.3,1234c-58.4,0-89.1,47.6-89.1,98.1c0,55.8,34.8,92.1,94,92.1c26.2,0,47.9-4.9,63.6-11.6l-6.7-31.5
		c-14.2,4.9-29.2,8.2-50.5,8.2c-29.6,0-55-14.2-56.2-47.2h122.1c0.7-4.1,1.5-10.9,1.5-19.5C378.9,1282.7,359.4,1234,300.3,1234z
		 M255.4,1310c1.9-18.7,13.9-44.6,42.3-44.6c30.7,0,38.2,27.7,37.8,44.6H255.4z"/>
	<path class="st1" d="M490.1,1234c-58.4,0-89.1,47.6-89.1,98.1c0,55.8,34.8,92.1,94,92.1c26.2,0,47.9-4.9,63.6-11.6l-6.7-31.5
		c-14.2,4.9-29.2,8.2-50.5,8.2c-29.6,0-55-14.2-56.2-47.2h122.1c0.7-4.1,1.5-10.9,1.5-19.5C568.7,1282.7,549.3,1234,490.1,1234z
		 M445.2,1310c1.9-18.7,13.9-44.6,42.3-44.6c30.7,0,38.2,27.7,37.8,44.6H445.2z"/>
	<path class="st1" d="M763.5,1238.1H708l-44.6,58.8c-4.5,6.4-9.7,14.2-14.2,21.3h-0.7v-163.6h-46.1v265.8h46.1v-62.2l15.3-18.3
		l52.4,80.5h56.5l-77.1-107.8L763.5,1238.1z"/>
	<path class="st2" d="M906.7,1231.4c-26,0-47.3,9.7-62.3,28.1l-0.8-24h-27.9l0.4,5.6c1,16,1.5,33,1.5,56.9v201.8H846v-93.5
		c13.7,15.1,33.6,23.5,56.5,23.5c43.2,0,86.9-31.6,86.9-102.2C989.4,1270.9,955.4,1231.4,906.7,1231.4z M902.9,1256.8
		c39.9,0,58,37.1,58,71.5c0,46.9-22.8,76-59.5,76c-25.6,0-47.3-16.8-54.1-41.7c-0.9-3.6-1.3-7.8-1.3-13v-35.2c0-3.6,1.1-8.2,2-12.2
		l0.4-1.8C855.3,1274.8,877.7,1256.8,902.9,1256.8z"/>
	<rect x="1021.3" y="1149.4" class="st2" width="28.5" height="276.3"/>
	<path class="st2" d="M1219.7,1377.8v-70.4c0-49.7-23.3-76-67.4-76c-19.5,0-40.3,6.1-55.7,16.2l-3.7,2.4l9.9,23.1l5.3-3.8
		c11.3-8.1,26.3-12.5,42.3-12.5c12.7-0.2,22.3,3.2,29,9.8c7.9,7.8,11.7,20,11.8,37.4c-43,0.3-74,9.5-92.2,27.5
		c-11.6,11.5-17.5,26.2-17.5,43.6c0,26.3,18.2,54.7,58,54.7c24.1,0,42.7-10.6,54.4-22.8l1.9,18.6h27.4l-1-6.1
		C1220,1405.7,1219.7,1390.6,1219.7,1377.8z M1188.4,1329.3c0.9,0,1.9,0,2.9,0v33.4c0,1.9-0.2,5.7-1.6,9.2
		c-5.3,15.7-20.8,32.4-48.2,32.4c-14.8,0-30.7-8.5-30.7-32.2c0-10.4,3.3-18.7,10-25.2C1132.6,1335.4,1155.9,1329.3,1188.4,1329.3z"
		/>
	<path class="st2" d="M1348.1,1231.4c-23,0-44.3,9.9-57.8,26.2l-0.8-22.1h-27.6l0.4,5.7c1.1,13.5,1.5,25.4,1.5,42.6v141.9h28.5
		v-116.4c0-5.3,1.1-11,2-14.6c6.8-22.1,26.9-37.5,48.9-37.5c38.8,0,44.6,35.7,44.6,56.9v111.6h28.5v-113.1
		C1416.3,1235.3,1359.5,1231.4,1348.1,1231.4z"/>
	<path class="st2" d="M1532.3,1231.4c-50.7,0-86.1,42.2-86.1,102.6c0,57.1,35.8,95.5,89.1,95.5c33.4,0,52.4-8.6,59.1-12.3l3.8-2.1
		l-7.7-23.7l-5.4,2.6c-10.3,5-23.3,9.6-47.5,9.6c-38.7,0-61.5-25.3-63.2-69.6h131.4l0.9-4.1c0.9-3.9,0.9-7,0.9-12
		C1607.6,1285.7,1591.7,1231.4,1532.3,1231.4z M1530.1,1256.8c13.8,0,25,4.2,33.1,12.4c11.9,12.1,14.6,29.5,15.1,40h-102.4
		C1480.7,1283.9,1497.2,1256.8,1530.1,1256.8z"/>
	<path class="st2" d="M1674.6,1193.5l-28.5,10.7v31.3h-30.3v25.1h30.3v108.2c0,21.6,4.1,36.8,12.4,46.4c7.6,9.6,19.6,14.6,34.7,14.6
		c10.6,0,19.7-1.7,27.2-4.9l3.7-1.6l-3.9-23.6l-5.8,1.9c-3.2,1.1-9.1,2.4-18.9,2.4c-9.8,0-21-3.6-21-31.8v-111.6h51.3v-25.1h-51.3
		V1193.5z"/>
</g>
<g>
	<path class="st0" d="M478.1,789.7c-17.2-21.9-32.3-45.1-45.3-69.1C289.8,811.4,421.6,797.1,478.1,789.7z"/>
	<path class="st0" d="M476.8,798.4c0,0-226.5,40-212.2,11c11-22.4,99-71.4,159.4-106c43.8-25.1,91.1-49.6,128-68.2
		c-31.7-59.8-32.7-126.7-31-155.6c-38.5,26.2-87.3,67.7-137.2,104.4c-115,84.6-239.4,186.1-275.6,253.9
		C37.3,970.6,476.8,798.4,476.8,798.4z"/>
	<path class="st0" d="M1263.1,182.9c-5.6,2.2-9.1,3.5-10,3.9c1-0.1,5.2-0.7,11.8-1.5c41.8-5.3,228.5-41.5,216.3-16.8
		c-10.2,20.7-107.5,73.7-162.5,105.9c-4.1,2.4-9.3,5.4-13.6,7.9l0,0c-0.1,0.1-0.2,0.1-0.3,0.2c-0.2,0.1-0.4,0.3-0.7,0.4l0,0
		c-37.4,21.4-77.2,42.3-110.8,59.4c-45.8,23.3-80.2,39.5-81.8,40.3c-4.6,2.1-7,3.3-7,3.3s39.8,68.5,11.9,175.3
		c0,0,19.3-12.4,50.2-33.3l10.2-6.8c0,0,1-0.7,2.8-2c21.3-14.4,46.8-31.8,74.7-51.4c28-19.6,58.3-41.7,89.2-64.5
		c4.7-3.4,9.3-6.9,14-10.4c112.9-84.4,230.1-181.8,264-245.4C1686,26.7,1328.5,158.1,1263.1,182.9z"/>
	<path class="st0" d="M1273.5,197.2c-5.1,0.5-12.3,1.5-17.6,2.2c16.4,22.3,30.5,45.6,42.6,69.5c4.3-2.8,9.3-6.3,13.1-8.8
		C1419.6,187.8,1332.5,190.7,1273.5,197.2z"/>
	<path class="st0" d="M1010.3,322.9c-43.1-38.4-97-56.9-150.5-56.2c-60.7,0.4-120.9,25.5-164.5,74.2
		c-81.8,91.5-73.8,231.9,17.9,313.5c74.7,66.5,181.8,73.5,263.1,24.5c18.9-11.3,36.4-25.6,51.8-42.8
		C1109.7,544.7,1101.7,404.5,1010.3,322.9z M1018.1,386.2l-12.3,10.8c-4.1,3.6-5,9.5-2.3,14.1c2.6,4.4,4.9,9,7,13.7
		c2.2,4.8,7.4,7.5,12.6,6.4l16.8-3.5c6.1-1.3,12.2,2.6,13.4,8.8l5,23.9c1.3,6.1-2.6,12.2-8.8,13.4l-16.8,3.5
		c-5.2,1.1-8.9,5.6-9,10.9c0,5.2-0.4,10.3-0.9,15.5c-0.6,5.4,2.7,10.4,7.8,12l15.6,4.9c6.1,1.9,9.4,8.5,7.3,14.5l-8,23.4
		c-2,5.8-8.3,9-14.2,7.1l-16.6-5.2c-5-1.6-10.4,0.5-13.1,5c-1.3,2.2-2.7,4.3-4.1,6.5c-1.4,2-2.8,4-4.2,6c-3.3,4.4-3,10.5,0.7,14.5
		l10.7,11.6c4.3,4.7,3.9,12-0.9,16.2L984.9,637c-4.6,4.1-11.7,3.7-15.8-0.8l-11.3-12.3c-3.5-3.8-9.3-4.8-13.8-2.2
		c-4.8,2.7-9.7,5.1-14.8,7.3c-4.9,2.1-7.6,7.4-6.5,12.7l3.3,15.6c1.3,6.1-2.6,12.2-8.8,13.4l-25.2,5.3c-6.1,1.3-12.2-2.6-13.4-8.8
		l-3.3-15.6c-1.1-5.2-5.7-9-11.1-9c-5.6,0-11.1-0.2-16.6-0.8c-5.2-0.5-10.1,2.6-11.8,7.6l-5.4,15.8c-2,5.8-8.3,9-14.2,7.1l-24.2-7.7
		c-6.1-1.9-9.4-8.5-7.3-14.5l5.1-15c1.8-5.2-0.4-10.8-5.2-13.6c-2.1-1.2-4.1-2.4-6.2-3.7c-4.7-3-9.3-6.2-13.6-9.7L745,625.9
		c-4.6,4.1-11.7,3.7-15.8-0.8l-16.8-18.2c-4.3-4.7-3.9-12,0.9-16.2l12.3-10.8c4.1-3.6,5-9.5,2.3-14.1c-2.6-4.4-4.9-9-7-13.7
		c-2.2-4.8-7.4-7.5-12.6-6.4l-16.8,3.5c-6.1,1.3-12.2-2.6-13.4-8.8l-5-23.9c-1.3-6.1,2.6-12.2,8.8-13.4l16.8-3.5
		c5.2-1.1,8.9-5.6,9-10.9c0-5.2,0.4-10.3,0.9-15.5c0.6-5.4-2.7-10.4-7.8-12l-15.6-4.9c-6.1-1.9-9.4-8.5-7.3-14.5l8-23.4
		c2-5.8,8.3-9,14.2-7.1l16.6,5.2c5,1.6,10.4-0.5,13.1-5c1.3-2.2,2.7-4.3,4.1-6.5c1.4-2,2.8-4,4.2-6c3.3-4.4,3-10.5-0.7-14.5
		l-10.7-11.6c-4.3-4.7-3.9-12,0.9-16.2l19.1-16.8c4.6-4.1,11.7-3.7,15.8,0.8l11.3,12.3c3.5,3.8,9.3,4.8,13.8,2.2
		c4.8-2.7,9.7-5.1,14.8-7.3c4.9-2.1,7.6-7.4,6.5-12.7l-3.3-15.6c-1.3-6.1,2.6-12.2,8.8-13.4l25.2-5.3c6.1-1.3,12.2,2.6,13.4,8.8
		l3.3,15.6c1.1,5.2,5.7,9,11.1,9c5.6,0,11.1,0.2,16.6,0.8c5.2,0.5,10.1-2.6,11.8-7.6l5.4-15.8c2-5.8,8.3-9,14.2-7.1l24.2,7.7
		c6.1,1.9,9.4,8.5,7.3,14.5l-5.1,15c-1.8,5.2,0.4,10.8,5.2,13.6c2.1,1.2,4.1,2.4,6.2,3.7c2.2,1.4,4.3,2.8,6.5,4.3
		c4.3,3,10.1,2.8,14-0.7l13.1-11.5c4.6-4.1,11.7-3.7,15.8,0.8L1019,370C1023.3,374.7,1022.9,382,1018.1,386.2z"/>
	<path class="st0" d="M931.3,402c7.2,7.1,12.5,16.3,15,26.9c6.9,29.9-11.8,59.7-41.7,66.6c-29.9,6.9-59.7-11.8-66.6-41.7
		c-6.9-29.9,11.8-59.7,41.7-66.6c6.7-1.5,13.4-1.7,19.9-0.9c-17.9-5.5-37.6-6.6-57.3-2.1c-56.9,12.8-95.3,69.8-84.4,125.4
		c11.5,59,71,96.6,131.4,83.1c56.9-12.8,95.2-69.8,84.4-125.4C968.2,439.9,952.5,417.2,931.3,402z M845.6,560.9
		c-12.6,2-24.4-6.7-26.4-19.3c-2-12.6,6.7-24.4,19.3-26.4c12.6-2,24.4,6.7,26.4,19.3C866.9,547.2,858.2,559,845.6,560.9z"/>
	<path class="st1" d="M1255.2,172.8c-4.5,2.3-10.2,5.2-14.3,7.3c-19.7-24.2-41.3-46.1-64.4-65.5c0-0.1-0.1-0.1-0.2-0.2
		c-3.3-2.8-6.6-5.4-9.9-8.1c-4.7-3.7-9.3-7.2-14.1-10.8C1076.9,39.8,987.8,7.8,896.5,1.2c-7.5-0.5-15.1-0.9-22.6-1.1
		c-0.3,0-0.6,0-0.9,0c-2.6-0.1-5.1,0-7.7,0c-1.5,0-3,0-4.6,0c-2.2,0-4.3-0.1-6.6,0c-1.5,0-2.9,0.1-4.3,0.1c-0.8,0-1.6,0.1-2.4,0.1
		c-12.7,0.3-25.3,1.2-37.9,2.5c-0.5,0.1-1,0.1-1.4,0.2c-12.3,1.4-24.6,3.1-36.8,5.4c-1.4,0.3-2.7,0.5-4.1,0.8
		c-3.4,0.6-6.7,1.4-10,2.1c-2.6,0.5-5.2,1.1-7.8,1.7c-2.6,0.6-5.3,1.2-7.9,1.9c-5.1,1.3-10.1,2.6-15.1,4c-1.1,0.3-2.1,0.6-3.2,0.9
		c-6.6,1.9-13.2,4-19.8,6.2c-0.2,0.1-0.4,0.1-0.5,0.2c-0.1,0-0.2,0-0.3,0.1c-46.4,15.8-91.3,39-132.8,69.7
		c-4.7,3.5-9.3,7.1-13.9,10.8c0,0-15.5,16.1,3.8,38.4l21.2,28.5c3.1,4.2,9.9,7.8,15,7.7c3.7-0.1,7-1.2,9.9-3.4l30.9-22.8
		c9.3-6.9,20.6-10.1,32.6-9.4l0.5,0l0.5,0.1c13.9,1.3,26.5,8.5,34.8,19.7l19,25.7c7.9,10.7,11.9,24,10,37.2
		c-2.1,14.1-9.9,26.3-21.9,34.1l-1.5,1c-4.5,3-8.4,5.7-12,8.5l-2.8,2.2c-3.8,2.9-7.1,5.6-10.2,8.2c-0.8,0.7-1.6,1.4-2.4,2.1
		l-1.1,0.9c-3,2.6-5.9,5.3-8.8,8.1l-0.9,0.8c-1,1-1.8,1.7-2.4,2.4c-4.4,4.3-8.1,8.2-11.3,11.8c-48.2,53.9-72.5,123.4-68.3,195.5
		c4.1,72.2,36.2,138.5,90.3,186.6c3.1,2.9,6.4,5.5,9.6,8.2c0.5,0.4,1.1,0.9,1.7,1.3l1.7,1.3c2.3,1.8,4.4,3.4,6.5,5
		c0.8,0.6,1.7,1.2,2.6,1.9l1.4,0.9c2.1,1.5,4.1,3,6.1,4.3c1.1,0.7,2.1,1.4,3.1,2l1.3,0.8c2.1,1.3,4.1,2.6,6.1,3.9
		c1.2,0.7,2.5,1.4,3.7,2.2l0.8,0.5c2,1.2,4,2.3,6,3.4c1.6,0.9,3.2,1.7,4.8,2.6c2,1,4,2,6.1,3.1c1.6,0.7,3.2,1.5,4.8,2.3
		c2.1,0.9,4.2,1.9,6.2,2.8c1.6,0.7,3.3,1.4,4.9,2.1c2,0.8,4.2,1.7,6.3,2.5l0.6,0.2c1.4,0.5,2.9,1.1,4.3,1.6c2.2,0.8,4.4,1.5,6.5,2.2
		l1.4,0.5c1.4,0.5,2.4,0.8,3.4,1.1c2.3,0.7,4.6,1.4,6.9,2l1.7,0.5c1,0.3,2,0.6,2.9,0.8c2.5,0.7,5,1.3,7.6,1.9l1.6,0.4
		c0.9,0.2,1.7,0.4,2.3,0.5c3.6,0.8,7.2,1.5,10.9,2.1l1,0.2c3.8,0.6,7.6,1.2,11.5,1.7c0.7,0.1,1.4,0.2,2,0.3l1.5,0.2
		c3,0.3,5.6,0.6,8.2,0.8l4.9,0.3c2.3,0.2,4.6,0.3,7,0.4c1.1,0.1,2.4,0.1,3.6,0.1l1.3,0c2.3,0,4.6,0.1,6.9,0.1c1.4,0,2.8-0.1,4.1-0.1
		l1.1,0c2.2-0.1,4.4-0.2,6.6-0.3c1.7-0.1,3.5-0.2,5.2-0.3c2.2-0.2,4.4-0.3,6.6-0.5c1.7-0.1,3.4-0.3,5.2-0.5c2.2-0.3,4.4-0.5,6.6-0.8
		c1.7-0.2,3.4-0.4,5.1-0.7c2.2-0.4,4.4-0.7,6.6-1.1l0.6-0.1c1.5-0.3,3-0.6,4.4-0.8c2.3-0.5,4.5-0.9,6.7-1.5l1.3-0.3
		c1.2-0.3,2.4-0.5,3.6-0.8c2.3-0.6,4.6-1.2,6.9-1.8l1.6-0.5c1.1-0.2,2-0.5,2.9-0.8c2.5-0.7,4.9-1.5,7.5-2.3l4-1.3
		c3.2-1.1,6.5-2.3,10.1-3.7l1.1-0.4c3.6-1.4,7.2-2.9,10.8-4.5l3.1-1.5c2.8-1.3,5.3-2.4,7.7-3.6c0.9-0.4,1.7-0.9,2.6-1.3l2.1-1.1
		c2.1-1.1,4-2.1,5.9-3.2c1.1-0.6,2.1-1.2,3.1-1.8l1.3-0.7c2.1-1.2,4.1-2.4,6.1-3.6c1.2-0.8,2.4-1.5,3.6-2.3l0.8-0.5
		c2-1.3,3.9-2.5,5.8-3.8c1.5-1,2.9-2,4.4-3l1.5-1.1c0.7-0.4,1.2-0.8,1.7-1.2c9.2-6.7,20.6-9.9,32.3-9.1c14.4,1,27.4,8.1,35.8,19.4
		l18.7,25.2c11.6,15.6,13.9,36.7,4.6,53.6c-3.4,6.2-8,11.5-13.6,15.7l-31.1,23.2c-0.8,0.6-1.6,1.4-2.4,2.1
		c-5.7,6.2-6.2,15.4-1.2,22.1l21,28.2c0.8,1.1,3.5,4.7,6.6,8.9c6.8,9,19.3,11.7,29.2,6.2c8.7-5.5,17.3-11.2,25.7-17.2
		c0.1-0.1,0.2-0.2,0.3-0.2c2-1.4,4-2.8,6-4.3c2.7-2,5.3-4.1,7.9-6.1c0.1-0.1,0.3-0.2,0.4-0.3c55.4-42.8,99.2-95.2,130.6-153.1
		c0.4-0.8,0.8-1.6,1.3-2.4c2.4-4.4,4.7-8.8,6.9-13.3c1.5-3,3-6,4.4-9.1c0.9-2,1.9-4,2.8-6c2.2-4.9,4.4-10,6.5-15
		c0.1-0.2,0.2-0.4,0.3-0.6c2.4-5.9,4.7-11.8,7-17.7c0-0.1,0.1-0.2,0.1-0.3c4.5-12.3,8.5-24.8,12.1-37.4c0.1-0.3,0.2-0.6,0.2-0.9
		c12.1-43.5,18.1-88.6,17.8-133.7c0-0.6,0-1.2,0-1.8c0-3.7-0.1-7.5-0.2-11.1c0-0.9,0-1.8-0.1-2.7c-0.2-3.5-0.3-7-0.5-10.5
		c0-0.9-0.1-1.8-0.2-2.8c-0.2-3.6-0.2-3.3-0.2-3.3c3.4-2.4,8.5-6,14.8-10.7c73.8-53.6,328.6-245.3,364.3-364.1
		C1766.4-46.3,1366.2,117.5,1255.2,172.8z M1028.1,636.1c-15.4,17.2-32.9,31.5-51.8,42.8c-81.3,49.1-188.4,42-263.1-24.5
		c-91.7-81.7-99.7-222-17.9-313.5c43.6-48.8,103.8-73.8,164.5-74.2c53.5-0.7,107.4,17.8,150.5,56.2
		C1101.7,404.5,1109.7,544.7,1028.1,636.1z M1621.6,147.3c-33.9,63.6-151.1,161-264,245.4c-4.7,3.5-9.3,6.9-14,10.4
		c-30.9,22.8-61.3,44.9-89.2,64.5c-27.9,19.6-53.4,37-74.7,51.4c-1.8,1.3-2.8,2-2.8,2l-10.2,6.8c-31,20.8-50.2,33.3-50.2,33.3
		c27.9-106.7-11.9-175.3-11.9-175.3s2.4-1.1,7-3.3c1.6-0.8,36-17,81.8-40.3c33.6-17.1,73.4-38,110.8-59.4l0,0
		c0.2-0.1,0.4-0.3,0.7-0.4c0.1-0.1,0.2-0.1,0.3-0.2l0,0c4.3-2.5,9.5-5.5,13.6-7.9c55-32.1,152.3-85.2,162.5-105.9
		c12.2-24.6-174.6,11.6-216.3,16.8c-6.6,0.8-10.8,1.4-11.8,1.5c0.9-0.4,4.4-1.7,10-3.9C1328.5,158.1,1686,26.7,1621.6,147.3z
		 M1255.9,199.4c5.3-0.7,12.5-1.7,17.6-2.2c59-6.5,146.1-9.4,38.2,63c-3.8,2.5-8.8,6-13.1,8.8C1286.5,245,1272.4,221.7,1255.9,199.4
		z"/>
	<path class="st2" d="M493,807.8c13.7,15.8,28.5,30.9,44.5,45.1c39.7,35.4,83.6,63.1,129.8,83.3c12.2,5.3,24.5,10.1,36.9,14.3
		c2.5-0.1,5-0.2,7.5-0.3c35.5,12.5,72,20.7,108.8,24.8c56.9,4.9,114.4-0.2,169.6-15c32.1-8.6,63.4-20.6,93.4-35.8
		c-9.4-3.1-17.8-9-23.9-17.2l-21-28.3c-13.9-18.7-12.5-44.8,3.2-62c2.1-2.3,4.4-4.3,6.7-6.1l31.1-23.2c1.4-1.1,2.7-2.4,3.8-3.8
		c4.4-6.1,4.3-14.4-0.2-20.4l-19.6-26.4c-5.5-7.4-16.9-9.1-24.5-3.6c-0.8,0.6-1.5,1.1-2.3,1.6l-1.2,0.8c-1.6,1.1-3.3,2.3-4.9,3.4
		c-2.1,1.4-4.3,2.8-6.4,4.2l-0.8,0.5c-1.4,0.9-2.8,1.8-4.2,2.6c-2.2,1.4-4.5,2.7-6.8,4l-1.2,0.7c-1.2,0.7-2.5,1.4-3.7,2.1
		c-2.2,1.2-4.4,2.4-6.6,3.5l-2,1.1c-1.1,0.6-2.1,1.1-3.2,1.7c-2.7,1.4-5.5,2.6-8.3,3.9l-1.3,0.6c-0.8,0.4-1.7,0.8-2.5,1.2
		c-4.1,1.8-8.2,3.5-12.3,5.1l-1.1,0.4c-4,1.5-7.6,2.9-11.3,4.1c-1,0.3-1.9,0.6-2.8,0.9l-1.5,0.5c-2.9,0.9-5.6,1.8-8.3,2.6
		c-1.2,0.4-2.4,0.7-3.6,1l-1.5,0.4c-2.7,0.7-5.2,1.4-7.7,2c-1.4,0.3-2.9,0.7-4.3,1l-1.1,0.3c-2.5,0.6-4.9,1.1-7.4,1.6
		c-1.7,0.3-3.4,0.6-5.1,0.9l-0.6,0.1c-2.4,0.4-4.9,0.9-7.4,1.2c-1.9,0.3-3.8,0.6-5.7,0.8c-2.4,0.3-4.9,0.6-7.3,0.9
		c-1.9,0.2-3.9,0.4-5.8,0.6c-2.5,0.2-4.9,0.4-7.4,0.6c-1.9,0.1-3.9,0.3-5.8,0.3c-2.5,0.1-5,0.2-7.5,0.3l-1,0c-1.6,0-3.1,0.1-4.7,0.1
		c-2.5,0-5.1,0-7.6-0.1l-1.3,0c-1.4,0-2.8-0.1-4.2-0.1c-2.6-0.1-5.2-0.3-7.7-0.4l-4.5-0.3l-0.9-0.1c-3-0.2-5.9-0.6-8.9-0.9l-1.4-0.1
		c-0.9-0.1-1.9-0.2-2.8-0.3c-4.3-0.5-8.7-1.2-13-1.9l-0.9-0.2c-4.1-0.7-8.1-1.5-12.1-2.3c-1-0.2-1.9-0.4-2.9-0.7l-1.5-0.3
		c-2.8-0.7-5.7-1.3-8.5-2.1c-1.2-0.3-2.4-0.7-3.5-1l-1.5-0.4c-2.6-0.7-5.1-1.4-7.7-2.2c-1.4-0.4-2.8-0.9-4.2-1.3l-1.2-0.4
		c-2.4-0.8-4.9-1.6-7.3-2.5c-1.6-0.6-3.3-1.2-4.9-1.8l-0.6-0.2c-2.4-0.9-4.7-1.8-7.1-2.8c-1.8-0.8-3.7-1.5-5.5-2.3
		c-2.3-1-4.6-2-6.9-3.1c-1.8-0.8-3.6-1.7-5.4-2.6c-2.3-1.1-4.6-2.3-6.8-3.4c-1.8-0.9-3.5-1.8-5.3-2.8c-2.3-1.2-4.5-2.5-6.7-3.8
		l-0.9-0.5c-1.4-0.8-2.8-1.7-4.2-2.5c-2.3-1.4-4.5-2.8-6.7-4.2l-1.1-0.7c-1.3-0.8-2.5-1.6-3.8-2.4c-2.3-1.5-4.6-3.2-6.8-4.8
		l-1.3-0.9c-1.1-0.7-2.1-1.5-3.2-2.3c-2.4-1.8-4.8-3.6-7.1-5.5l-1.5-1.2c-0.8-0.6-1.6-1.2-2.4-1.9c-3.6-3-7.2-6-10.7-9.1
		c-60.4-53.7-96.1-127.7-100.7-208.3c-4.6-80.5,22.5-158,76.3-218.2c3.6-4.1,7.7-8.3,12.5-13.1c1-1,2-1.9,3-2.9l0.8-0.8
		c3.2-3.1,6.5-6.1,9.8-9l1-0.9c1-0.8,1.9-1.7,2.9-2.5c3.5-3,7.3-6,11.4-9.2l0.6-0.5c0.6-0.5,1.1-0.9,1.7-1.4l0.9-0.6
		c4-3,8.4-6.1,13.5-9.4c0.7-0.5,1.2-0.8,1.6-1.2c4.3-2.8,7.1-7.1,8-12c0.8-4.7-0.3-9.4-3.1-13.2L679.9,184c-3-4-7.4-6.5-12.4-7
		c-3.1-0.2-7.8,0.2-12.1,3.3l-30.9,22.8c-8.7,6.4-19,9.7-29.8,9.5c-15.2-0.2-29.5-7.6-38.5-19.7l-21.7-29.2
		c-6.2-8.4-9.4-18.3-9.5-28.2c-9.2,8.8-18.2,18-26.9,27.7c-95.3,106.9-135.1,244-121.3,376.1C320.4,579.8,40,785.7,2.5,910.8
		C-37.3,1043.2,415.1,850.9,493,807.8z M108.1,838c36.2-67.8,160.5-169.3,275.6-253.9c50-36.7,98.7-78.2,137.2-104.4
		c-1.7,28.9-0.7,95.8,31,155.6c-36.9,18.5-84.1,43.1-128,68.2c-60.4,34.6-148.4,83.6-159.4,106c-14.3,29,212.2-11,212.2-11
		S37.3,970.6,108.1,838z M478.1,789.7c-56.5,7.3-188.3,21.7-45.3-69.1C445.8,744.7,460.9,767.8,478.1,789.7z"/>
	<path class="st3" d="M461.1,981.7c0,18.8,182.7,34,408,34c225.3,0,408-15.2,408-34c0-13.8-99.3-25.7-241.6-31
		C966.6,974.6,893,983,820.5,975c-39.3-3.4-78.4-11.5-116.2-24.5C561,955.8,461.1,967.8,461.1,981.7z"/>
	<path class="st2" d="M704.2,950.6c37.9,13,76.9,21.1,116.2,24.5c-36.8-4-73.3-12.2-108.8-24.8C709.2,950.4,706.7,950.5,704.2,950.6
		z"/>
	<path class="st3" d="M704.2,950.6c37.9,13,76.9,21.1,116.2,24.5c-36.8-4-73.3-12.2-108.8-24.8C709.2,950.4,706.7,950.5,704.2,950.6
		z"/>
	<circle class="st1" cx="842.1" cy="538.1" r="23.1"/>
	<path class="st1" d="M986.4,351l-13.1,11.5c-4,3.5-9.7,3.7-14,0.7c-2.1-1.5-4.3-2.9-6.5-4.3c-2-1.3-4.1-2.5-6.2-3.7
		c-4.8-2.7-7-8.4-5.2-13.6l5.1-15c2.1-6-1.2-12.6-7.3-14.5l-24.2-7.7c-5.9-1.9-12.2,1.3-14.2,7.1l-5.4,15.8
		c-1.7,4.9-6.6,8.1-11.8,7.6c-5.5-0.5-11-0.8-16.6-0.8c-5.4,0-10-3.7-11.1-9l-3.3-15.6c-1.3-6.1-7.3-10.1-13.4-8.8l-25.2,5.3
		c-6.1,1.3-10.1,7.3-8.8,13.4l3.3,15.6c1.1,5.2-1.6,10.5-6.5,12.7c-5.1,2.2-10,4.7-14.8,7.3c-4.6,2.6-10.3,1.6-13.8-2.2l-11.3-12.3
		c-4.2-4.5-11.2-4.9-15.8-0.8l-19.1,16.8c-4.8,4.2-5.2,11.5-0.9,16.2l10.7,11.6c3.7,4,4,10.1,0.7,14.5c-1.4,2-2.9,3.9-4.2,6
		c-1.4,2.1-2.8,4.3-4.1,6.5c-2.7,4.5-8.1,6.6-13.1,5l-16.6-5.2c-5.9-1.9-12.2,1.3-14.2,7.1l-8,23.4c-2.1,6,1.2,12.6,7.3,14.5
		l15.6,4.9c5.1,1.6,8.4,6.7,7.8,12c-0.6,5.1-0.9,10.3-0.9,15.5c0,5.3-3.8,9.8-9,10.9l-16.8,3.5c-6.1,1.3-10.1,7.3-8.8,13.4l5,23.9
		c1.3,6.1,7.3,10.1,13.4,8.8l16.8-3.5c5.2-1.1,10.4,1.6,12.6,6.4c2.1,4.7,4.5,9.3,7,13.7c2.7,4.7,1.7,10.6-2.3,14.1l-12.3,10.8
		c-4.8,4.2-5.2,11.5-0.9,16.2l16.8,18.2c4.2,4.5,11.2,4.9,15.8,0.8l19.9-17.5c4.3,3.4,8.9,6.7,13.6,9.7c2,1.3,4.1,2.5,6.2,3.7
		c4.8,2.7,7,8.4,5.2,13.6l-5.1,15c-2.1,6,1.2,12.6,7.3,14.5l24.2,7.7c5.9,1.9,12.2-1.3,14.2-7.1l5.4-15.8c1.7-4.9,6.6-8.1,11.8-7.6
		c5.5,0.5,11,0.8,16.6,0.8c5.4,0,10,3.7,11.1,9l3.3,15.6c1.3,6.1,7.3,10.1,13.4,8.8l25.2-5.3c6.1-1.3,10.1-7.3,8.8-13.4l-3.3-15.6
		c-1.1-5.2,1.6-10.5,6.5-12.7c5.1-2.2,10-4.7,14.8-7.3c4.6-2.6,10.3-1.6,13.8,2.2l11.3,12.3c4.2,4.5,11.2,4.9,15.8,0.8l19.1-16.8
		c4.8-4.2,5.2-11.5,0.9-16.2l-10.7-11.6c-3.7-4-4-10.1-0.7-14.5c1.4-2,2.9-3.9,4.2-6c1.4-2.1,2.8-4.3,4.1-6.5
		c2.7-4.5,8.1-6.6,13.1-5l16.6,5.2c5.9,1.9,12.2-1.3,14.2-7.1l8-23.4c2.1-6-1.2-12.6-7.3-14.5l-15.6-4.9c-5.1-1.6-8.4-6.7-7.8-12
		c0.6-5.1,0.9-10.3,0.9-15.5c0-5.3,3.8-9.8,9-10.9l16.8-3.5c6.1-1.3,10.1-7.3,8.8-13.4l-5-23.9c-1.3-6.1-7.3-10.1-13.4-8.8
		l-16.8,3.5c-5.2,1.1-10.4-1.6-12.6-6.4c-2.1-4.7-4.5-9.3-7-13.7c-2.7-4.7-1.7-10.6,2.3-14.1l12.3-10.8c4.8-4.2,5.2-11.5,0.9-16.2
		l-16.8-18.2C998.1,347.3,991,346.9,986.4,351z M889.2,592.7c-60.3,13.5-119.8-24.1-131.4-83.1c-10.9-55.6,27.5-112.7,84.4-125.4
		c19.8-4.4,39.4-3.3,57.3,2.1c-6.4-0.9-13.1-0.7-19.9,0.9c-29.9,6.9-48.5,36.7-41.7,66.6c6.9,29.9,36.7,48.5,66.6,41.7
		c29.9-6.9,48.5-36.7,41.7-66.6c-2.4-10.6-7.8-19.7-15-26.9c21.3,15.2,36.9,37.9,42.3,65.3C984.4,522.9,946.1,579.9,889.2,592.7z"/>
</g>
</svg>
